<svg width="193" height="69" viewBox="0 0 193 69" fill="none" xmlns="http://www.w3.org/2000/svg">
<path d="M85.5066 38.1676H79V33.4231H97.9751V38.1676H91.4987V54.5769H85.5066V38.1676Z" fill="#DB0F1B"/>
<path d="M109.96 55C106.813 55 104.361 54.1438 102.606 52.4313C100.871 50.7189 100.003 48.2912 100.003 45.1484V33.4231H105.996V44.967C105.996 48.3516 107.337 50.044 110.021 50.044C112.684 50.044 114.015 48.3516 114.015 44.967V33.4231H119.917V45.1484C119.917 48.2912 119.039 50.7189 117.284 52.4313C115.549 54.1438 113.107 55 109.96 55Z" fill="#DB0F1B"/>
<path d="M133.539 48.956H130.271V54.5769H124.279V33.4231H133.963C135.879 33.4231 137.544 33.7454 138.956 34.3901C140.369 35.0147 141.458 35.9212 142.225 37.1099C142.991 38.2784 143.375 39.6584 143.375 41.25C143.375 42.7811 143.011 44.1209 142.285 45.2692C141.579 46.3974 140.56 47.2839 139.229 47.9286L143.798 54.5769H137.383L133.539 48.956ZM137.322 41.25C137.322 40.2628 137.009 39.4973 136.384 38.9533C135.758 38.4093 134.83 38.1374 133.6 38.1374H130.271V44.3324H133.6C134.83 44.3324 135.758 44.0705 136.384 43.5467C137.009 43.0027 137.322 42.2372 137.322 41.25Z" fill="#DB0F1B"/>
<path d="M163.265 43.5467C164.475 43.9698 165.423 44.6346 166.109 45.5412C166.795 46.4277 167.138 47.5055 167.138 48.7747C167.138 50.6282 166.392 52.0586 164.899 53.0659C163.406 54.0733 161.247 54.5769 158.423 54.5769H146.983V33.4231H157.817C160.521 33.4231 162.579 33.9267 163.991 34.9341C165.403 35.9212 166.109 37.261 166.109 38.9533C166.109 39.9606 165.857 40.8672 165.353 41.6731C164.869 42.4588 164.173 43.0833 163.265 43.5467ZM152.915 37.7445V41.8242H157.03C159.048 41.8242 160.057 41.1392 160.057 39.7692C160.057 38.4194 159.048 37.7445 157.03 37.7445H152.915ZM157.938 50.2555C160.037 50.2555 161.086 49.5403 161.086 48.1099C161.086 46.6795 160.037 45.9643 157.938 45.9643H152.915V50.2555H157.938Z" fill="#DB0F1B"/>
<path d="M181.228 55C178.988 55 176.971 54.5266 175.175 53.5797C173.4 52.6328 171.997 51.3233 170.968 49.6511C169.96 47.9789 169.455 46.0952 169.455 44C169.455 41.9048 169.96 40.0211 170.968 38.3489C171.997 36.6767 173.4 35.3672 175.175 34.4203C176.971 33.4734 178.988 33 181.228 33C183.467 33 185.475 33.4734 187.25 34.4203C189.046 35.3672 190.448 36.6767 191.457 38.3489C192.486 40.0211 193 41.9048 193 44C193 46.0952 192.486 47.9789 191.457 49.6511C190.448 51.3233 189.046 52.6328 187.25 53.5797C185.475 54.5266 183.467 55 181.228 55ZM181.228 50.044C182.297 50.044 183.265 49.7921 184.133 49.2885C185 48.7848 185.686 48.0797 186.191 47.1731C186.695 46.2463 186.947 45.1886 186.947 44C186.947 42.8114 186.695 41.7637 186.191 40.8571C185.686 39.9304 185 39.2152 184.133 38.7115C183.265 38.2079 182.297 37.956 181.228 37.956C180.158 37.956 179.19 38.2079 178.322 38.7115C177.455 39.2152 176.769 39.9304 176.264 40.8571C175.76 41.7637 175.508 42.8114 175.508 44C175.508 45.1886 175.76 46.2463 176.264 47.1731C176.769 48.0797 177.455 48.7848 178.322 49.2885C179.19 49.7921 180.158 50.044 181.228 50.044Z" fill="#DB0F1B"/>
<path d="M87.8034 24.5275H83.0913L82.2157 26.7692H79L83.9191 15.2308H87.0233L91.9583 26.7692H88.6789L87.8034 24.5275ZM86.8801 22.1209L85.4473 18.4286L84.0146 22.1209H86.8801Z" fill="#2D181A"/>
<path d="M93.0111 15.2308H98.2804C99.5009 15.2308 100.583 15.467 101.528 15.9396C102.472 16.4121 103.205 17.0824 103.725 17.9505C104.245 18.8187 104.505 19.8352 104.505 21C104.505 22.1648 104.245 23.1813 103.725 24.0495C103.205 24.9176 102.472 25.5879 101.528 26.0604C100.583 26.533 99.5009 26.7692 98.2804 26.7692H93.0111V15.2308ZM98.153 24.1648C99.1082 24.1648 99.8723 23.8846 100.445 23.3242C101.029 22.7637 101.321 21.989 101.321 21C101.321 20.011 101.029 19.2363 100.445 18.6758C99.8723 18.1154 99.1082 17.8352 98.153 17.8352H96.1631V24.1648H98.153Z" fill="#2D181A"/>
<path d="M119.679 20.7527C120.316 20.9835 120.815 21.3462 121.175 21.8407C121.536 22.3242 121.717 22.9121 121.717 23.6044C121.717 24.6154 121.324 25.3956 120.539 25.9451C119.753 26.4945 118.618 26.7692 117.132 26.7692H111.114V15.2308H116.813C118.236 15.2308 119.318 15.5055 120.061 16.0549C120.804 16.5934 121.175 17.3242 121.175 18.2473C121.175 18.7967 121.043 19.2912 120.777 19.7308C120.523 20.1593 120.157 20.5 119.679 20.7527ZM114.235 17.5879V19.8132H116.4C117.461 19.8132 117.991 19.4396 117.991 18.6923C117.991 17.956 117.461 17.5879 116.4 17.5879H114.235ZM116.877 24.4121C117.981 24.4121 118.533 24.022 118.533 23.2418C118.533 22.4615 117.981 22.0714 116.877 22.0714H114.235V24.4121H116.877Z" fill="#2D181A"/>
<path d="M123.508 15.2308H126.66V24.1813H131.977V26.7692H123.508V15.2308Z" fill="#2D181A"/>
<path d="M138.832 27C137.654 27 136.593 26.7418 135.649 26.2253C134.715 25.7088 133.977 24.9945 133.436 24.0824C132.905 23.1703 132.64 22.1429 132.64 21C132.64 19.8571 132.905 18.8297 133.436 17.9176C133.977 17.0055 134.715 16.2912 135.649 15.7747C136.593 15.2582 137.654 15 138.832 15C140.011 15 141.066 15.2582 142 15.7747C142.945 16.2912 143.683 17.0055 144.213 17.9176C144.754 18.8297 145.025 19.8571 145.025 21C145.025 22.1429 144.754 23.1703 144.213 24.0824C143.683 24.9945 142.945 25.7088 142 26.2253C141.066 26.7418 140.011 27 138.832 27ZM138.832 24.2967C139.395 24.2967 139.904 24.1593 140.361 23.8846C140.817 23.6099 141.178 23.2253 141.443 22.7308C141.709 22.2253 141.841 21.6484 141.841 21C141.841 20.3516 141.709 19.7802 141.443 19.2857C141.178 18.7802 140.817 18.3901 140.361 18.1154C139.904 17.8407 139.395 17.7033 138.832 17.7033C138.27 17.7033 137.761 17.8407 137.304 18.1154C136.848 18.3901 136.487 18.7802 136.222 19.2857C135.956 19.7802 135.824 20.3516 135.824 21C135.824 21.6484 135.956 22.2253 136.222 22.7308C136.487 23.2253 136.848 23.6099 137.304 23.8846C137.761 24.1593 138.27 24.2967 138.832 24.2967Z" fill="#2D181A"/>
<path d="M152.391 27C151.224 27 150.173 26.7473 149.239 26.2418C148.316 25.7253 147.589 25.011 147.058 24.0989C146.527 23.1868 146.262 22.1538 146.262 21C146.262 19.8462 146.527 18.8132 147.058 17.9011C147.589 16.989 148.316 16.2802 149.239 15.7747C150.173 15.2582 151.224 15 152.391 15C153.41 15 154.328 15.1868 155.145 15.5604C155.962 15.9341 156.641 16.4725 157.183 17.1758L155.177 19.0549C154.455 18.1538 153.58 17.7033 152.55 17.7033C151.945 17.7033 151.404 17.8407 150.926 18.1154C150.459 18.3901 150.093 18.7802 149.828 19.2857C149.573 19.7802 149.446 20.3516 149.446 21C149.446 21.6484 149.573 22.2253 149.828 22.7308C150.093 23.2253 150.459 23.6099 150.926 23.8846C151.404 24.1593 151.945 24.2967 152.55 24.2967C153.58 24.2967 154.455 23.8462 155.177 22.9451L157.183 24.8242C156.641 25.5275 155.962 26.0659 155.145 26.4396C154.328 26.8132 153.41 27 152.391 27Z" fill="#2D181A"/>
<path d="M163.046 22.5824L161.867 23.8846V26.7692H158.747V15.2308H161.867V20.0275L166.182 15.2308H169.652L165.099 20.3407L169.891 26.7692H166.229L163.046 22.5824Z" fill="#2D181A"/>
<path d="M179.824 24.2473V26.7692H170.877V15.2308H179.617V17.7527H173.997V19.6978H178.948V22.1374H173.997V24.2473H179.824Z" fill="#2D181A"/>
<path d="M186.603 23.7033H184.884V26.7692H181.732V15.2308H186.826C187.834 15.2308 188.71 15.4066 189.453 15.7582C190.196 16.0989 190.769 16.5934 191.172 17.2418C191.575 17.8791 191.777 18.6319 191.777 19.5C191.777 20.3352 191.586 21.0659 191.204 21.6923C190.833 22.3077 190.297 22.7912 189.596 23.1429L192 26.7692H188.625L186.603 23.7033ZM188.593 19.5C188.593 18.9615 188.429 18.544 188.1 18.2473C187.771 17.9505 187.283 17.8022 186.635 17.8022H184.884V21.1813H186.635C187.283 21.1813 187.771 21.0385 188.1 20.7527C188.429 20.456 188.593 20.0385 188.593 19.5Z" fill="#2D181A"/>
<g clip-path="url(#clip0_8486_78930)">
<path d="M27.6141 1.84004C31.8751 -0.613347 37.1249 -0.613347 41.3859 1.84004L59.4188 12.2229C63.6798 14.6763 66.3047 19.2104 66.3047 24.1171V44.8829C66.3047 49.7896 63.6798 54.3237 59.4188 56.7771L41.3859 67.16C37.1249 69.6133 31.8751 69.6133 27.6141 67.16L9.58123 56.7771C5.32021 54.3237 2.69531 49.7896 2.69531 44.8829V24.1171C2.69531 19.2104 5.32021 14.6763 9.58123 12.2229L27.6141 1.84004Z" fill="#830008"/>
<path d="M28.4311 5.92254C32.1865 3.77582 36.8135 3.77582 40.5689 5.92254L56.4623 15.0075C60.2178 17.1543 62.5312 21.1216 62.5312 25.415V43.585C62.5312 47.8784 60.2178 51.8457 56.4623 53.9925L40.5689 63.0775C36.8135 65.2242 32.1865 65.2242 28.4311 63.0775L12.5377 53.9925C8.78222 51.8457 6.46875 47.8784 6.46875 43.585V25.415C6.46875 21.1216 8.78222 17.1543 12.5377 15.0075L28.4311 5.92254Z" fill="#DB0F1B"/>
<g opacity="0.4">
<path d="M46.1588 39.8485L55.4106 32.3438L60.375 37.3469L53.6054 40.7582L56.3132 43.0323L40.9688 46.8984L48.4153 41.4404L46.1588 39.8485Z" fill="#830008"/>
<path d="M22.8412 39.8485L13.5894 32.3438L8.625 37.3469L15.3946 40.7582L12.6868 43.0323L28.0312 46.8984L20.5847 41.4404L22.8412 39.8485Z" fill="#830008"/>
<path d="M19.4062 27.6101H29.8532V54.9844H39.1468V27.6101H49.5938V19.9453H19.4062V27.6101Z" fill="#830008"/>
</g>
<path d="M46.1588 37.1532L55.4106 29.6484L60.375 34.6516L53.6054 38.0629L56.3132 40.337L40.9688 44.2031L48.4153 38.7451L46.1588 37.1532Z" fill="#F2CB05"/>
<path d="M22.8412 37.1532L13.5894 29.6484L8.625 34.6516L15.3946 38.0629L12.6868 40.337L28.0312 44.2031L20.5847 38.7451L22.8412 37.1532Z" fill="#F2CB05"/>
<path d="M19.4062 24.3757H29.8532V51.75H39.1468V24.3757H49.5938V16.7109H19.4062V24.3757Z" fill="white"/>
</g>
<defs>
<clipPath id="clip0_8486_78930">
<rect width="69" height="69" fill="white"/>
</clipPath>
</defs>
</svg>
